<svg width="204" height="48" viewBox="0 0 204 48" fill="none" xmlns="http://www.w3.org/2000/svg">
<path d="M53.2276 30.0408C52.1716 30.1563 50.9142 30.0738 49.7229 29.856C50.5083 26.8265 50.5875 23.9753 49.9605 21.3352C49.1289 17.8437 46.1094 14.2863 41.9513 14.2467C40.1692 14.2236 38.5357 14.91 37.3279 16.164C35.965 17.5797 35.2125 19.6753 35.3082 21.7741C35.5722 27.4238 41.3507 30.9417 44.4362 32.4234C44.2184 32.9085 43.9841 33.3969 43.7267 33.8919C41.7665 37.6936 37.7833 43.967 32.9784 43.4291C31.0941 43.208 29.6882 41.2511 29.2757 39.4295C28.9094 37.8124 28.6553 36.0865 28.5002 34.1593C28.4177 33.1197 28.4111 32.0868 28.4012 31.0539C28.3946 30.2652 28.388 29.4765 28.3517 28.6877C28.3088 27.6944 27.563 26.8727 26.5763 26.7308C25.583 26.5856 24.6457 27.173 24.3289 28.1168C22.0651 34.7995 18.2271 43.6238 10.9307 43.6238C10.8284 43.6238 10.7261 43.6238 10.6238 43.6205C9.79874 43.5908 9.07273 43.373 8.58102 43.01C6.52508 41.4788 7.10919 37.3966 7.6405 35.0998C8.21471 32.6181 9.23773 30.2553 10.6799 28.0838C12.2144 25.7738 14.1944 23.9587 16.2603 22.1503C17.0391 21.4672 17.1942 20.3155 16.62 19.4509C16.0458 18.5895 14.9204 18.2793 13.9931 18.738C9.75254 20.8039 6.15547 21.0349 3.00391 19.4278C1.98749 18.9163 0.743363 19.3156 0.225253 20.3353C-0.292857 21.3517 0.113051 22.5958 1.13277 23.1139C3.30751 24.2195 5.64066 24.7112 8.09261 24.599C7.7989 24.9851 7.5118 25.3844 7.23789 25.7969C5.51856 28.3841 4.30083 31.1991 3.61442 34.1659C1.93469 41.426 4.04673 44.7855 6.11257 46.3233C7.29069 47.2011 8.80212 47.6928 10.4885 47.7489C10.6469 47.7555 10.8053 47.7555 10.9604 47.7555C17.7321 47.7555 22.0453 42.8021 24.7645 37.7992C24.8998 38.6737 25.0582 39.5186 25.2463 40.3403C25.9559 43.4819 28.5299 47.0724 32.5032 47.5344C36.3115 47.9799 41.9777 46.3002 47.3997 35.7862C47.7495 35.113 48.0663 34.4431 48.3534 33.783C49.8483 34.1064 51.5743 34.2979 53.2309 34.1791V47.0658H58.28V15.8142H53.2309V30.0408H53.2276ZM45.8058 28.493C42.6938 26.9255 39.5719 24.4076 39.4399 21.5794C39.3937 20.6092 39.727 19.6324 40.3045 19.0351C40.7269 18.5961 41.2451 18.3816 41.882 18.3816H41.9117C43.8554 18.4014 45.4856 20.3848 45.9411 22.2955C46.3899 24.1799 46.3437 26.2523 45.8058 28.4963V28.493Z" fill="white"/>
<path d="M55.767 4.76172H55.7637C54.2546 4.76172 53.0312 5.98508 53.0312 7.49417V7.67238C53.0312 9.18147 54.2546 10.4048 55.7637 10.4048H55.767C57.2761 10.4048 58.4995 9.18147 58.4995 7.67238V7.49417C58.4995 5.98508 57.2761 4.76172 55.767 4.76172Z" fill="white"/>
<path d="M73.2915 28.5899C69.008 27.9266 65.3219 27.3292 65.3219 24.0226C65.3219 21.3132 68.0708 19.5213 72.4104 19.5213C76.75 19.5213 79.6408 21.4122 79.8355 24.7915H84.614C84.4193 18.8943 79.7695 15.1289 72.5226 15.1289C65.2757 15.1289 60.4411 18.792 60.4411 24.1777C60.4411 31.2332 66.566 32.3156 72.0408 33.243C76.3837 33.9591 80.3504 34.6818 80.3504 38.3317C80.3504 41.3941 77.2021 43.2026 72.8163 43.2026C68.4305 43.2026 65.0513 41.2027 64.7839 37.4868H59.8438C60.1144 43.7735 65.0446 47.7533 72.6546 47.7533C80.2678 47.7533 85.3466 43.9616 85.3466 38.1205C85.3466 30.461 78.8356 29.4611 73.3014 28.5866L73.2915 28.5899Z" fill="white"/>
<path d="M141.256 4.76172C139.744 4.76172 138.523 5.98604 138.523 7.49417V7.66908C138.523 9.18051 139.748 10.4015 141.256 10.4015C142.764 10.4015 143.988 9.17721 143.988 7.66908V7.49417C143.988 5.98274 142.764 4.76172 141.256 4.76172Z" fill="white"/>
<path d="M138.39 35.966C137.902 38.1275 136.061 40.6322 133.826 42.1404C132.523 43.0215 130.487 43.962 128.21 43.4967C125.134 42.8598 122.821 38.5697 122.58 35.8934C122.527 35.3224 122.481 34.7515 122.435 34.1806C124.411 32.9398 125.966 31.4284 126.877 30.4317C132.269 24.5576 135.836 15.7696 135.75 8.56221C135.727 6.62177 135.282 3.0742 132.549 1.12716C130.071 -0.64497 126.622 -0.298464 124.167 1.96208C121.699 4.23913 120.534 7.51279 119.798 10.1132C117.696 17.5252 117.795 25.3001 118.049 30.5076C118.069 30.9103 118.092 31.3096 118.115 31.7122C117.151 32.0554 116.135 32.227 115.109 32.1082V28.3494C115.109 20.2345 110.347 15.1326 102.73 15.1326C98.0769 15.1326 94.1861 16.9807 91.721 20.0695V4.66153H86.6719V47.074H91.721V30.0225C91.721 24.1583 95.9418 19.6306 101.426 19.6306C106.911 19.6306 110.059 23.1716 110.059 29.511V47.0707H115.109V36.263C116.26 36.3455 117.376 36.2234 118.432 35.9528C118.442 36.0551 118.451 36.1607 118.458 36.2663C118.821 40.2956 122.118 46.4569 127.365 47.5459C128.055 47.6878 128.754 47.7604 129.451 47.7604C131.708 47.7604 133.985 47.0179 136.133 45.5658C136.935 45.0246 137.691 44.4009 138.384 43.7178V47.0707H143.433V15.8158H138.384V35.966H138.39ZM123.778 11.2419C124.322 9.32453 125.243 6.59537 126.976 5.00144C127.52 4.49653 128.286 4.14012 129.018 4.14012C129.418 4.14012 129.81 4.24573 130.154 4.48993C131.051 5.12684 131.599 6.66797 131.619 8.60841C131.688 14.7399 128.487 22.5644 123.831 27.6366C123.484 28.0128 122.893 28.62 122.134 29.2668C121.936 24.3959 121.973 17.6011 123.778 11.2419Z" fill="white"/>
<path d="M162.219 15.1316C157.252 15.1316 153.15 17.237 150.731 20.7153L149.748 15.8147H146.164V47.0696H151.213V30.0182C151.213 24.154 155.434 19.6263 160.919 19.6263C166.403 19.6263 169.552 23.1673 169.552 29.5067V47.0663H174.601V28.3451C174.601 20.7054 169.839 15.125 162.222 15.125L162.219 15.1316Z" fill="white"/>
<path d="M191.117 30.8L202.813 15.8144H196.658L186.775 28.4998H182.112V4.66016H177.062V47.0693H182.112V33.0506H186.699L197.685 47.0693H204.001L191.117 30.8Z" fill="white"/>
</svg>
